<?xml version="1.0"?>
<svg version="1.1" id="圖層_1" xmlns="http://www.w3.org/2000/svg" x="0" y="0" viewBox="0 0 100 100" xml:space="preserve"><circle cx="33.3" cy="37.7" r="23.3" fill-rule="evenodd" clip-rule="evenodd" fill="#ffdc6c"/><path d="M78.5 58.1c.6-1.9.9-3.9.9-5.9 0-10.8-8.8-19.6-19.6-19.6-7.5 0-14 4.2-17.3 10.4-1.2-.4-2.6-.6-3.9-.6-7.2 0-13 5.8-13 13 0 .9.1 1.8.3 2.6-6.6 1-11.7 6.8-11.7 13.7 0 7.7 6.2 13.9 13.9 13.9h48.1c7.7 0 13.9-6.2 13.9-13.9-.1-6.8-5.1-12.5-11.6-13.6z" fill-rule="evenodd" clip-rule="evenodd" fill="#b5b5b5"/><metadata xmlns:d="https://loading.io/stock/"><d:name>sunny</d:name><d:tags>solar,sky,weather,cloud,mist,day,light,sunny,weather</d:tags><d:license>pro</d:license><d:slug>iqwxiq</d:slug></metadata></svg>