<?xml version="1.0"?>
<svg version="1.1" id="圖層_1" xmlns="http://www.w3.org/2000/svg" x="0" y="0" viewBox="0 0 100 100" xml:space="preserve"><path d="M5.6 54.1z"/><path d="M71.8 31c.5-1.5.8-3.2.8-4.9 0-8.9-7.2-16.1-16.1-16.1-6.2 0-11.5 3.5-14.2 8.6-1-.3-2.1-.5-3.2-.5-5.9 0-10.8 4.8-10.8 10.8 0 .7.1 1.5.2 2.2-5.5.9-9.6 5.6-9.6 11.3 0 6.3 5.1 11.4 11.4 11.4h39.6c6.3 0 11.4-5.1 11.4-11.4-.1-5.8-4.2-10.5-9.5-11.4z" fill-rule="evenodd" clip-rule="evenodd" fill="#b5b5b5"/><path d="M44 54v3.3c0 .6.4 1.1 1 1.1.3 0 .6-.1.8-.3.2-.2.3-.5.3-.8V54c0-.1.1-.3.2-.3.1-.1.3-.1.4 0l2.9 1.6c.2.1.3.1.5.1.4 0 .8-.2 1-.6.2-.5 0-1.1-.5-1.4l-2.8-1.6c-.1-.1-.2-.2-.2-.3 0-.1.1-.3.2-.3l2.8-1.6c.5-.3.7-.9.5-1.4-.1-.3-.4-.5-.6-.5-.3-.1-.6-.1-.8.1l-2.9 1.6c-.1.1-.3.1-.4 0-.1-.1-.2-.2-.2-.3v-3.3c0-.6-.4-1.1-1-1.1-.3 0-.6.1-.8.3-.2.2-.3.5-.3.8V49c0 .1-.1.3-.2.3-.1.1-.3.1-.4 0l-2.9-1.6c-.3-.1-.6-.2-.8-.1-.3.1-.5.3-.6.5-.2.5 0 1.1.5 1.4l2.8 1.6c.1.1.2.2.2.3 0 .1-.1.3-.2.3l-2.8 1.6c-.5.3-.7.9-.5 1.4.2.4.5.6 1 .6.2 0 .4 0 .5-.1l2.9-1.6h.4c-.1.1 0 .2 0 .4z" fill="#e0e0e0"/><path d="M64.4 59.3v3.3c0 .6.4 1.1 1 1.1.3 0 .6-.1.8-.3.2-.2.3-.5.3-.8v-3.3c0-.1.1-.3.2-.3.1-.1.3-.1.4 0l2.9 1.6c.2.1.3.1.5.1.4 0 .8-.2 1-.6.2-.5 0-1.1-.5-1.4l-2.8-1.6c-.2 0-.2-.1-.2-.3s.1-.3.2-.3l2.8-1.6c.5-.3.7-.9.5-1.4-.1-.3-.4-.5-.6-.5-.3-.1-.6-.1-.8.1l-2.9 1.6c-.1.1-.3.1-.4 0-.1-.1-.2-.2-.2-.3v-3.3c0-.6-.4-1.1-1-1.1-.3 0-.6.1-.8.3-.2.2-.3.5-.3.8v3.3c0 .1-.1.3-.2.3-.1.1-.3.1-.4 0L61 53c-.3-.1-.6-.2-.8-.1-.3.1-.5.3-.6.5-.2.5 0 1.1.5 1.4l2.8 1.6c.1.1.2.2.2.3s-.1.3-.2.3L60 58.8c-.5.3-.7.9-.5 1.4.2.4.5.6 1 .6.2 0 .4 0 .5-.1l2.9-1.6h.4c.1-.1.1.1.1.2z" fill="#e0e0e0"/><path d="M29.2 67.7V71c0 .6.4 1.1 1 1.1.3 0 .6-.1.8-.3.2-.2.3-.5.3-.8v-3.3c0-.1.1-.3.2-.3.1-.1.3-.1.4 0l2.9 1.6c.2.1.3.1.5.1.4 0 .8-.2 1-.6.2-.5 0-1.1-.5-1.4L33 65.6c-.1-.1-.2-.2-.2-.3s0-.3.2-.3l2.8-1.6c.5-.3.7-.9.5-1.4-.1-.3-.4-.5-.6-.5-.3-.1-.6-.1-.8.1L32 63.2c-.1.1-.3.1-.4 0-.1-.1-.2-.2-.2-.3v-3.3c0-.6-.4-1.1-1-1.1-.3 0-.6.1-.8.3-.2.2-.3.5-.3.8v3.3c0 .1-.1.3-.2.3-.1.1-.3.1-.4 0l-2.9-1.6c-.3-.1-.6-.2-.8-.1-.3.1-.5.3-.6.5-.2.5 0 1.1.5 1.4l2.8 1.6c.1.1.2.2.2.3s-.1.3-.2.3l-2.8 1.6c-.5.3-.7.9-.5 1.4.2.4.5.6 1 .6.2 0 .4 0 .5-.1l2.9-1.6h.4v.2z" fill="#e0e0e0"/><path d="M51.9 74.9v3.3c0 .6.4 1.1 1 1.1.3 0 .6-.1.8-.3.2-.2.3-.5.3-.8v-3.3c0-.1.1-.3.2-.3.1-.1.3-.1.4 0l2.9 1.6c.2.1.3.1.5.1.4 0 .8-.2 1-.6.2-.5 0-1.1-.5-1.4l-2.8-1.6c-.1-.1-.2-.2-.2-.3s.1-.3.2-.3l2.8-1.6c.5-.3.7-.9.5-1.4-.1-.3-.4-.5-.6-.5-.3-.1-.6-.1-.8.1l-2.9 1.6c-.1.1-.3.1-.4 0-.2-.1-.3-.2-.3-.3v-3.3c0-.6-.4-1.1-1-1.1-.3 0-.6.1-.8.3-.2.2-.3.5-.3.8V70c0 .1-.1.3-.2.3-.1.1-.3.1-.4 0l-2.9-1.6c-.3-.1-.6-.2-.8-.1-.3.1-.5.3-.6.5-.2.5 0 1.1.5 1.4l2.8 1.6c.1.1.2.2.2.3s-.1.3-.2.3l-2.8 1.6c-.5.3-.7.9-.5 1.4.2.4.5.6 1 .6.2 0 .4 0 .5-.1l2.9-1.6h.4c0 .1.1.2.1.3z" fill="#e0e0e0"/><path d="M36.3 85.7V89c0 .6.4 1.1 1 1.1.3 0 .6-.1.8-.3.2-.2.3-.5.3-.8v-3.3c0-.1.1-.3.2-.3.1-.1.3-.1.4 0l2.9 1.6c.2.1.3.1.5.1.4 0 .8-.2 1-.6.2-.5 0-1.1-.5-1.4L40 83.5c-.1-.1-.2-.2-.2-.3s.1-.3.2-.3l2.8-1.6c.5-.3.7-.9.5-1.4-.1-.3-.4-.5-.6-.5-.3-.1-.6-.1-.8.1L39 81.1c-.1.1-.3.1-.4 0-.1-.1-.2-.2-.2-.3v-3.3c0-.6-.4-1.1-1-1.1-.3 0-.6.1-.8.3-.2.2-.3.5-.3.8v3.3c0 .1-.1.3-.2.3-.1.1-.3.1-.4 0l-2.9-1.6c-.3-.1-.6-.2-.8-.1-.3.1-.5.3-.6.5-.2.5 0 1.1.5 1.4l2.8 1.6c.1.1.2.2.2.3s-.1.3-.2.3l-2.8 1.6c-.5.3-.7.9-.5 1.4.2.4.5.6 1 .6.2 0 .4 0 .5-.1l2.9-1.6h.4s.1.1.1.3z" fill="#e0e0e0"/><path d="M70 79v3.3c0 .6.4 1.1 1 1.1.3 0 .6-.1.8-.3.2-.2.3-.5.3-.8V79c0-.1.1-.3.2-.3.1-.1.3-.1.4 0l2.9 1.6c.2.1.3.1.5.1.4 0 .8-.2 1-.6.2-.5 0-1.1-.5-1.4l-2.8-1.6c-.1-.1-.2-.2-.2-.3s.1-.3.2-.3l2.8-1.6c.5-.3.7-.9.5-1.4-.1-.3-.4-.5-.6-.5-.3-.1-.6-.1-.8.1l-2.9 1.6c-.1.1-.3.1-.4 0-.1-.1-.2-.2-.2-.3v-3.3c0-.6-.4-1.1-1-1.1-.3 0-.6.1-.8.3-.2.2-.3.5-.3.8v3.3c0 .1-.1.3-.2.3-.1.1-.3.1-.4 0l-2.9-1.6c-.3-.1-.6-.2-.8-.1-.3.1-.5.3-.6.5-.2.5 0 1.1.5 1.4l2.8 1.6c.1.1.2.2.2.3s-.1.3-.2.3l-2.8 1.6c-.5.3-.7.9-.5 1.4.2.4.5.6 1 .6.2 0 .4 0 .5-.1l2.9-1.6h.4c-.1 0 0 .2 0 .3z" fill="#e0e0e0"/><metadata xmlns:d="https://loading.io/stock/"><d:name>snow</d:name><d:tags>storm,cold,cool,blizzard,snowfall,hail,snow,weather</d:tags><d:license>by</d:license><d:slug>o5qle5</d:slug></metadata></svg>