<?xml version="1.0"?>
<svg version="1.1" id="圖層_1" xmlns="http://www.w3.org/2000/svg" x="0" y="0" viewBox="0 0 100 100" xml:space="preserve"><path d="M73.6 32.8c.5-1.7.8-3.4.8-5.3 0-9.6-7.8-17.5-17.5-17.5-6.7 0-12.5 3.8-15.4 9.3-1.1-.3-2.3-.5-3.5-.5-6.4 0-11.6 5.2-11.6 11.6 0 .8.1 1.6.2 2.4-5.9.9-10.4 6-10.4 12.2 0 6.8 5.5 12.4 12.4 12.4h42.9c6.8 0 12.4-5.5 12.4-12.4-.1-6.2-4.5-11.3-10.3-12.2z" fill-rule="evenodd" clip-rule="evenodd" fill="#b5b5b5"/><g><g><path d="M28.3 66.8l1.5-3.8c.4-1-.1-2.1-1.1-2.5-1-.4-2.1.1-2.5 1.1l-1.5 3.8c-.4 1 .1 2.1 1.1 2.5.2.1.5.1.7.1.8 0 1.5-.5 1.8-1.2z" fill="#77a4bd"/></g><g><path d="M35.7 72.9l3.8-9.9c.4-1-.1-2.1-1.1-2.5-1-.4-2.1.1-2.5 1.1l-3.8 9.9c-.4 1 .1 2.1 1.1 2.5.2.1.5.1.7.1.8 0 1.6-.5 1.8-1.2z" fill="#77a4bd"/></g><g><path d="M43.2 79l6.1-16c.4-1-.1-2.1-1.1-2.5-1-.4-2.1.1-2.5 1.1l-6.1 16c-.4 1 .1 2.1 1.1 2.5.2.1.5.1.7.1.7 0 1.5-.5 1.8-1.2z" fill="#77a4bd"/></g><g><path d="M57 67.9l1.9-4.9c.4-1-.1-2.1-1.1-2.5-1-.4-2.1.1-2.5 1.1l-1.9 4.9c-.4 1 .1 2.1 1.1 2.5.2.1.5.1.7.1.8.1 1.6-.4 1.8-1.2z" fill="#77a4bd"/></g><g><path d="M61.8 81l6.5-18.1c.4-1-.2-2.1-1.2-2.5-1-.4-2.1.2-2.5 1.2l-6.5 18.1c-.4 1 .2 2.1 1.2 2.5.2.1.4.1.7.1.8 0 1.5-.5 1.8-1.3z" fill="#77a4bd"/></g><g><path d="M71.9 75.3l3.8-11.7c.3-1-.2-2.1-1.2-2.4-1-.3-2.1.2-2.4 1.2l-3.8 11.7c-.3 1 .2 2.1 1.2 2.4.2.1.4.1.6.1.8.1 1.5-.5 1.8-1.3z" fill="#77a4bd"/></g><g><path d="M20.1 88.8l5.7-15.4c.4-1-.1-2.1-1.1-2.5-1-.4-2.1.1-2.5 1.1l-5.7 15.4c-.4 1 .1 2.1 1.1 2.5.2.1.4.1.7.1.8 0 1.5-.5 1.8-1.2z" fill="#77a4bd"/></g><g><path d="M29.7 88.8L33 80c.4-1-.1-2.1-1.1-2.5-1-.4-2.1.1-2.5 1.1L26 87.4c-.4 1 .1 2.1 1.1 2.5.2.1.5.1.7.1.9 0 1.6-.5 1.9-1.2z" fill="#77a4bd"/></g><g><path d="M39.4 88.8l.9-2.4c.4-1-.1-2.1-1.1-2.5-1-.4-2.1.1-2.5 1.1l-.9 2.4c-.4 1 .1 2.1 1.1 2.5.2.1.5.1.7.1.8 0 1.6-.5 1.8-1.2z" fill="#77a4bd"/></g><g><path d="M49 88.8l5.3-13.5c.4-1-.1-2.1-1.1-2.5-1-.4-2.1.1-2.5 1.1l-5.3 13.5c-.4 1 .1 2.1 1.1 2.5.3.1.5.1.7.1.8 0 1.5-.5 1.8-1.2z" fill="#77a4bd"/></g><g><path d="M68.6 88.8l2.6-6.8c.4-1-.1-2.1-1.1-2.5-1-.4-2.1.1-2.5 1.1L65 87.4c-.4 1 .1 2.1 1.1 2.5.2.1.5.1.7.1.8 0 1.5-.5 1.8-1.2z" fill="#77a4bd"/></g></g><path d="M50.4 66.2l9.4-13.1c.5-.7.1-1.8-.5-1.8H47.7c-.8 0-1.5.6-1.8 1.6l-8.1 20c-.1.4.1.8.3.8l12.9.1-3 7.3c-.2.5-.1 1.2.2 1.7.3.4.9.4 1.2 0l12.9-15.7c.3-.3.1-1-.3-1l-11.6.1z" fill="#f8b26a"/><metadata xmlns:d="https://loading.io/stock/"><d:name>thunder storm</d:name><d:tags>blizzard,hurricane,lightning,rain,cloud,thunder storm,weather</d:tags><d:license>pro</d:license><d:slug>v3sgx5</d:slug></metadata></svg>